<?xml version="1.0" encoding="UTF-8" standalone="no"?>
<!DOCTYPE svg PUBLIC "-//W3C//DTD SVG 1.1//EN"
 "http://www.w3.org/Graphics/SVG/1.1/DTD/svg11.dtd">
<!-- Generated by graphviz version 2.42.3 (0)
 -->
<!-- Title: X Pages: 1 -->
<svg width="552pt" height="1857pt"
 viewBox="0.00 0.00 552.00 1857.00" xmlns="http://www.w3.org/2000/svg" xmlns:xlink="http://www.w3.org/1999/xlink">
<g id="graph0" class="graph" transform="scale(1 1) rotate(0) translate(4 1853)">
<title>X</title>
<polygon fill="white" stroke="transparent" points="-4,4 -4,-1853 548,-1853 548,4 -4,4"/>
<!-- @ -->
<g id="node1" class="node">
<title>@</title>
<ellipse fill="none" stroke="black" cx="273" cy="-1831" rx="27" ry="18"/>
<text text-anchor="middle" x="273" y="-1827.3" font-family="Times,serif" font-size="14.00">@</text>
</g>
<!-- 40:41 -->
<g id="node2" class="node">
<title>40:41</title>
<ellipse fill="none" stroke="black" cx="234" cy="-1758" rx="30.59" ry="18"/>
<text text-anchor="middle" x="234" y="-1754.3" font-family="Times,serif" font-size="14.00">40:41</text>
</g>
<!-- @&#45;&gt;40:41 -->
<g id="edge1" class="edge">
<title>@&#45;&gt;40:41</title>
<path fill="none" stroke="black" d="M264.15,-1813.89C259.38,-1805.21 253.39,-1794.29 248,-1784.49"/>
<polygon fill="black" stroke="black" points="250.97,-1782.62 243.09,-1775.54 244.83,-1785.99 250.97,-1782.62"/>
</g>
<!-- 40:39 -->
<g id="node38" class="node">
<title>40:39</title>
<ellipse fill="none" stroke="black" cx="326" cy="-1758" rx="30.59" ry="18"/>
<text text-anchor="middle" x="326" y="-1754.3" font-family="Times,serif" font-size="14.00">40:39</text>
</g>
<!-- @&#45;&gt;40:39 -->
<g id="edge37" class="edge">
<title>@&#45;&gt;40:39</title>
<path fill="none" stroke="black" d="M284.5,-1814.59C291.35,-1805.42 300.19,-1793.57 307.96,-1783.17"/>
<polygon fill="black" stroke="black" points="310.98,-1784.97 314.16,-1774.87 305.37,-1780.79 310.98,-1784.97"/>
</g>
<!-- 39:41 -->
<g id="node3" class="node">
<title>39:41</title>
<ellipse fill="none" stroke="black" cx="158" cy="-1671" rx="30.59" ry="18"/>
<text text-anchor="middle" x="158" y="-1667.3" font-family="Times,serif" font-size="14.00">39:41</text>
</g>
<!-- 40:41&#45;&gt;39:41 -->
<g id="edge2" class="edge">
<title>40:41&#45;&gt;39:41</title>
<path fill="none" stroke="black" d="M220.41,-1741.8C208.81,-1728.83 191.95,-1709.97 178.68,-1695.12"/>
<polygon fill="black" stroke="black" points="181,-1692.47 171.73,-1687.35 175.78,-1697.14 181,-1692.47"/>
</g>
<!-- l -->
<g id="node29" class="node">
<title>l</title>
<ellipse fill="none" stroke="black" cx="234" cy="-1671" rx="27" ry="18"/>
<text text-anchor="middle" x="234" y="-1667.3" font-family="Times,serif" font-size="14.00">l</text>
</g>
<!-- 40:41&#45;&gt;l -->
<g id="edge28" class="edge">
<title>40:41&#45;&gt;l</title>
<path fill="none" stroke="black" d="M234,-1739.8C234,-1728.16 234,-1712.55 234,-1699.24"/>
<polygon fill="black" stroke="black" points="237.5,-1699.18 234,-1689.18 230.5,-1699.18 237.5,-1699.18"/>
<text text-anchor="middle" x="244.5" y="-1710.8" font-family="Times,serif" font-size="14.00">145</text>
</g>
<!-- 33:57 -->
<g id="node4" class="node">
<title>33:57</title>
<ellipse fill="none" stroke="black" cx="83" cy="-1584" rx="30.59" ry="18"/>
<text text-anchor="middle" x="83" y="-1580.3" font-family="Times,serif" font-size="14.00">33:57</text>
</g>
<!-- 39:41&#45;&gt;33:57 -->
<g id="edge3" class="edge">
<title>39:41&#45;&gt;33:57</title>
<path fill="none" stroke="black" d="M144.59,-1654.8C133.14,-1641.83 116.5,-1622.97 103.4,-1608.12"/>
<polygon fill="black" stroke="black" points="105.79,-1605.53 96.55,-1600.35 100.54,-1610.17 105.79,-1605.53"/>
<text text-anchor="middle" x="132" y="-1623.8" font-family="Times,serif" font-size="14.00">66</text>
</g>
<!-- x -->
<g id="node28" class="node">
<title>x</title>
<ellipse fill="none" stroke="black" cx="159" cy="-1584" rx="27" ry="18"/>
<text text-anchor="middle" x="159" y="-1580.3" font-family="Times,serif" font-size="14.00">x</text>
</g>
<!-- 39:41&#45;&gt;x -->
<g id="edge27" class="edge">
<title>39:41&#45;&gt;x</title>
<path fill="none" stroke="black" d="M158.2,-1652.8C158.34,-1641.16 158.52,-1625.55 158.68,-1612.24"/>
<polygon fill="black" stroke="black" points="162.18,-1612.22 158.8,-1602.18 155.18,-1612.13 162.18,-1612.22"/>
<text text-anchor="middle" x="166" y="-1623.8" font-family="Times,serif" font-size="14.00">16</text>
</g>
<!-- g -->
<g id="node5" class="node">
<title>g</title>
<ellipse fill="none" stroke="black" cx="70" cy="-1497" rx="27" ry="18"/>
<text text-anchor="middle" x="70" y="-1493.3" font-family="Times,serif" font-size="14.00">g</text>
</g>
<!-- 33:57&#45;&gt;g -->
<g id="edge4" class="edge">
<title>33:57&#45;&gt;g</title>
<path fill="none" stroke="black" d="M80.37,-1565.8C78.59,-1554.16 76.2,-1538.55 74.17,-1525.24"/>
<polygon fill="black" stroke="black" points="77.6,-1524.53 72.63,-1515.18 70.68,-1525.59 77.6,-1524.53"/>
<text text-anchor="middle" x="81.5" y="-1536.8" font-family="Times,serif" font-size="14.00">8</text>
</g>
<!-- e -->
<g id="node7" class="node">
<title>e</title>
<ellipse fill="none" stroke="black" cx="142" cy="-1497" rx="27" ry="18"/>
<text text-anchor="middle" x="142" y="-1493.3" font-family="Times,serif" font-size="14.00">e</text>
</g>
<!-- 33:57&#45;&gt;e -->
<g id="edge6" class="edge">
<title>33:57&#45;&gt;e</title>
<path fill="none" stroke="black" d="M94.1,-1567.01C102.89,-1554.35 115.31,-1536.45 125.3,-1522.06"/>
<polygon fill="black" stroke="black" points="128.32,-1523.84 131.15,-1513.63 122.57,-1519.85 128.32,-1523.84"/>
<text text-anchor="middle" x="127.5" y="-1536.8" font-family="Times,serif" font-size="14.00">142</text>
</g>
<!-- j -->
<g id="node6" class="node">
<title>j</title>
<ellipse fill="none" stroke="black" cx="70" cy="-1410" rx="27" ry="18"/>
<text text-anchor="middle" x="70" y="-1406.3" font-family="Times,serif" font-size="14.00">j</text>
</g>
<!-- g&#45;&gt;j -->
<g id="edge5" class="edge">
<title>g&#45;&gt;j</title>
<path fill="none" stroke="black" d="M70,-1478.8C70,-1467.16 70,-1451.55 70,-1438.24"/>
<polygon fill="black" stroke="black" points="73.5,-1438.18 70,-1428.18 66.5,-1438.18 73.5,-1438.18"/>
<text text-anchor="middle" x="77" y="-1449.8" font-family="Times,serif" font-size="14.00">18</text>
</g>
<!-- 1:49 -->
<g id="node8" class="node">
<title>1:49</title>
<ellipse fill="none" stroke="black" cx="142" cy="-1410" rx="27" ry="18"/>
<text text-anchor="middle" x="142" y="-1406.3" font-family="Times,serif" font-size="14.00">1:49</text>
</g>
<!-- e&#45;&gt;1:49 -->
<g id="edge7" class="edge">
<title>e&#45;&gt;1:49</title>
<path fill="none" stroke="black" d="M142,-1478.8C142,-1467.16 142,-1451.55 142,-1438.24"/>
<polygon fill="black" stroke="black" points="145.5,-1438.18 142,-1428.18 138.5,-1438.18 145.5,-1438.18"/>
<text text-anchor="middle" x="149" y="-1449.8" font-family="Times,serif" font-size="14.00">62</text>
</g>
<!-- z -->
<g id="node9" class="node">
<title>z</title>
<ellipse fill="none" stroke="black" cx="73" cy="-1323" rx="27" ry="18"/>
<text text-anchor="middle" x="73" y="-1319.3" font-family="Times,serif" font-size="14.00">z</text>
</g>
<!-- 1:49&#45;&gt;z -->
<g id="edge8" class="edge">
<title>1:49&#45;&gt;z</title>
<path fill="none" stroke="black" d="M129.66,-1393.8C119.07,-1380.75 103.63,-1361.74 91.55,-1346.85"/>
<polygon fill="black" stroke="black" points="94.25,-1344.62 85.23,-1339.06 88.81,-1349.03 94.25,-1344.62"/>
<text text-anchor="middle" x="119" y="-1362.8" font-family="Times,serif" font-size="14.00">26</text>
</g>
<!-- m -->
<g id="node27" class="node">
<title>m</title>
<ellipse fill="none" stroke="black" cx="145" cy="-1323" rx="27" ry="18"/>
<text text-anchor="middle" x="145" y="-1319.3" font-family="Times,serif" font-size="14.00">m</text>
</g>
<!-- 1:49&#45;&gt;m -->
<g id="edge26" class="edge">
<title>1:49&#45;&gt;m</title>
<path fill="none" stroke="black" d="M142.61,-1391.8C143.02,-1380.16 143.57,-1364.55 144.04,-1351.24"/>
<polygon fill="black" stroke="black" points="147.54,-1351.29 144.39,-1341.18 140.54,-1351.05 147.54,-1351.29"/>
<text text-anchor="middle" x="151" y="-1362.8" font-family="Times,serif" font-size="14.00">12</text>
</g>
<!-- o -->
<g id="node10" class="node">
<title>o</title>
<ellipse fill="none" stroke="black" cx="73" cy="-1236" rx="27" ry="18"/>
<text text-anchor="middle" x="73" y="-1232.3" font-family="Times,serif" font-size="14.00">o</text>
</g>
<!-- z&#45;&gt;o -->
<g id="edge9" class="edge">
<title>z&#45;&gt;o</title>
<path fill="none" stroke="black" d="M73,-1304.8C73,-1293.16 73,-1277.55 73,-1264.24"/>
<polygon fill="black" stroke="black" points="76.5,-1264.18 73,-1254.18 69.5,-1264.18 76.5,-1264.18"/>
<text text-anchor="middle" x="80" y="-1275.8" font-family="Times,serif" font-size="14.00">24</text>
</g>
<!-- H -->
<g id="node11" class="node">
<title>H</title>
<ellipse fill="none" stroke="black" cx="73" cy="-1149" rx="27" ry="18"/>
<text text-anchor="middle" x="73" y="-1145.3" font-family="Times,serif" font-size="14.00">H</text>
</g>
<!-- o&#45;&gt;H -->
<g id="edge10" class="edge">
<title>o&#45;&gt;H</title>
<path fill="none" stroke="black" d="M73,-1217.8C73,-1206.16 73,-1190.55 73,-1177.24"/>
<polygon fill="black" stroke="black" points="76.5,-1177.18 73,-1167.18 69.5,-1177.18 76.5,-1177.18"/>
<text text-anchor="middle" x="80" y="-1188.8" font-family="Times,serif" font-size="14.00">27</text>
</g>
<!-- 25:63 -->
<g id="node12" class="node">
<title>25:63</title>
<ellipse fill="none" stroke="black" cx="73" cy="-1062" rx="30.59" ry="18"/>
<text text-anchor="middle" x="73" y="-1058.3" font-family="Times,serif" font-size="14.00">25:63</text>
</g>
<!-- H&#45;&gt;25:63 -->
<g id="edge11" class="edge">
<title>H&#45;&gt;25:63</title>
<path fill="none" stroke="black" d="M73,-1130.8C73,-1119.16 73,-1103.55 73,-1090.24"/>
<polygon fill="black" stroke="black" points="76.5,-1090.18 73,-1080.18 69.5,-1090.18 76.5,-1090.18"/>
<text text-anchor="middle" x="76.5" y="-1101.8" font-family="Times,serif" font-size="14.00">9</text>
</g>
<!-- U -->
<g id="node13" class="node">
<title>U</title>
<ellipse fill="none" stroke="black" cx="27" cy="-975" rx="27" ry="18"/>
<text text-anchor="middle" x="27" y="-971.3" font-family="Times,serif" font-size="14.00">U</text>
</g>
<!-- 25:63&#45;&gt;U -->
<g id="edge12" class="edge">
<title>25:63&#45;&gt;U</title>
<path fill="none" stroke="black" d="M64.13,-1044.61C57.47,-1032.3 48.23,-1015.23 40.63,-1001.19"/>
<polygon fill="black" stroke="black" points="43.52,-999.18 35.69,-992.05 37.37,-1002.51 43.52,-999.18"/>
<text text-anchor="middle" x="56.5" y="-1014.8" font-family="Times,serif" font-size="14.00">9</text>
</g>
<!-- W -->
<g id="node15" class="node">
<title>W</title>
<ellipse fill="none" stroke="black" cx="99" cy="-975" rx="27" ry="18"/>
<text text-anchor="middle" x="99" y="-971.3" font-family="Times,serif" font-size="14.00">W</text>
</g>
<!-- 25:63&#45;&gt;W -->
<g id="edge14" class="edge">
<title>25:63&#45;&gt;W</title>
<path fill="none" stroke="black" d="M78.14,-1044.21C81.77,-1032.33 86.71,-1016.17 90.88,-1002.56"/>
<polygon fill="black" stroke="black" points="94.3,-1003.34 93.87,-992.76 87.6,-1001.3 94.3,-1003.34"/>
<text text-anchor="middle" x="95" y="-1014.8" font-family="Times,serif" font-size="14.00">29</text>
</g>
<!-- w -->
<g id="node14" class="node">
<title>w</title>
<ellipse fill="none" stroke="black" cx="27" cy="-888" rx="27" ry="18"/>
<text text-anchor="middle" x="27" y="-884.3" font-family="Times,serif" font-size="14.00">w</text>
</g>
<!-- U&#45;&gt;w -->
<g id="edge13" class="edge">
<title>U&#45;&gt;w</title>
<path fill="none" stroke="black" d="M27,-956.8C27,-945.16 27,-929.55 27,-916.24"/>
<polygon fill="black" stroke="black" points="30.5,-916.18 27,-906.18 23.5,-916.18 30.5,-916.18"/>
<text text-anchor="middle" x="30.5" y="-927.8" font-family="Times,serif" font-size="14.00">7</text>
</g>
<!-- n -->
<g id="node16" class="node">
<title>n</title>
<ellipse fill="none" stroke="black" cx="99" cy="-888" rx="27" ry="18"/>
<text text-anchor="middle" x="99" y="-884.3" font-family="Times,serif" font-size="14.00">n</text>
</g>
<!-- W&#45;&gt;n -->
<g id="edge15" class="edge">
<title>W&#45;&gt;n</title>
<path fill="none" stroke="black" d="M99,-956.8C99,-945.16 99,-929.55 99,-916.24"/>
<polygon fill="black" stroke="black" points="102.5,-916.18 99,-906.18 95.5,-916.18 102.5,-916.18"/>
<text text-anchor="middle" x="106" y="-927.8" font-family="Times,serif" font-size="14.00">11</text>
</g>
<!-- N -->
<g id="node17" class="node">
<title>N</title>
<ellipse fill="none" stroke="black" cx="99" cy="-801" rx="27" ry="18"/>
<text text-anchor="middle" x="99" y="-797.3" font-family="Times,serif" font-size="14.00">N</text>
</g>
<!-- n&#45;&gt;N -->
<g id="edge16" class="edge">
<title>n&#45;&gt;N</title>
<path fill="none" stroke="black" d="M99,-869.8C99,-858.16 99,-842.55 99,-829.24"/>
<polygon fill="black" stroke="black" points="102.5,-829.18 99,-819.18 95.5,-829.18 102.5,-829.18"/>
<text text-anchor="middle" x="106" y="-840.8" font-family="Times,serif" font-size="14.00">13</text>
</g>
<!-- s -->
<g id="node18" class="node">
<title>s</title>
<ellipse fill="none" stroke="black" cx="99" cy="-714" rx="27" ry="18"/>
<text text-anchor="middle" x="99" y="-710.3" font-family="Times,serif" font-size="14.00">s</text>
</g>
<!-- N&#45;&gt;s -->
<g id="edge17" class="edge">
<title>N&#45;&gt;s</title>
<path fill="none" stroke="black" d="M99,-782.8C99,-771.16 99,-755.55 99,-742.24"/>
<polygon fill="black" stroke="black" points="102.5,-742.18 99,-732.18 95.5,-742.18 102.5,-742.18"/>
<text text-anchor="middle" x="102.5" y="-753.8" font-family="Times,serif" font-size="14.00">7</text>
</g>
<!-- S -->
<g id="node19" class="node">
<title>S</title>
<ellipse fill="none" stroke="black" cx="99" cy="-627" rx="27" ry="18"/>
<text text-anchor="middle" x="99" y="-623.3" font-family="Times,serif" font-size="14.00">S</text>
</g>
<!-- s&#45;&gt;S -->
<g id="edge18" class="edge">
<title>s&#45;&gt;S</title>
<path fill="none" stroke="black" d="M99,-695.8C99,-684.16 99,-668.55 99,-655.24"/>
<polygon fill="black" stroke="black" points="102.5,-655.18 99,-645.18 95.5,-655.18 102.5,-655.18"/>
<text text-anchor="middle" x="106" y="-666.8" font-family="Times,serif" font-size="14.00">11</text>
</g>
<!-- a -->
<g id="node20" class="node">
<title>a</title>
<ellipse fill="none" stroke="black" cx="99" cy="-540" rx="27" ry="18"/>
<text text-anchor="middle" x="99" y="-536.3" font-family="Times,serif" font-size="14.00">a</text>
</g>
<!-- S&#45;&gt;a -->
<g id="edge19" class="edge">
<title>S&#45;&gt;a</title>
<path fill="none" stroke="black" d="M99,-608.8C99,-597.16 99,-581.55 99,-568.24"/>
<polygon fill="black" stroke="black" points="102.5,-568.18 99,-558.18 95.5,-568.18 102.5,-568.18"/>
<text text-anchor="middle" x="102.5" y="-579.8" font-family="Times,serif" font-size="14.00">7</text>
</g>
<!-- A -->
<g id="node21" class="node">
<title>A</title>
<ellipse fill="none" stroke="black" cx="99" cy="-453" rx="27" ry="18"/>
<text text-anchor="middle" x="99" y="-449.3" font-family="Times,serif" font-size="14.00">A</text>
</g>
<!-- a&#45;&gt;A -->
<g id="edge20" class="edge">
<title>a&#45;&gt;A</title>
<path fill="none" stroke="black" d="M99,-521.8C99,-510.16 99,-494.55 99,-481.24"/>
<polygon fill="black" stroke="black" points="102.5,-481.18 99,-471.18 95.5,-481.18 102.5,-481.18"/>
<text text-anchor="middle" x="106" y="-492.8" font-family="Times,serif" font-size="14.00">11</text>
</g>
<!-- k -->
<g id="node22" class="node">
<title>k</title>
<ellipse fill="none" stroke="black" cx="99" cy="-366" rx="27" ry="18"/>
<text text-anchor="middle" x="99" y="-362.3" font-family="Times,serif" font-size="14.00">k</text>
</g>
<!-- A&#45;&gt;k -->
<g id="edge21" class="edge">
<title>A&#45;&gt;k</title>
<path fill="none" stroke="black" d="M99,-434.8C99,-423.16 99,-407.55 99,-394.24"/>
<polygon fill="black" stroke="black" points="102.5,-394.18 99,-384.18 95.5,-394.18 102.5,-394.18"/>
<text text-anchor="middle" x="102.5" y="-405.8" font-family="Times,serif" font-size="14.00">7</text>
</g>
<!-- K -->
<g id="node23" class="node">
<title>K</title>
<ellipse fill="none" stroke="black" cx="99" cy="-279" rx="27" ry="18"/>
<text text-anchor="middle" x="99" y="-275.3" font-family="Times,serif" font-size="14.00">K</text>
</g>
<!-- k&#45;&gt;K -->
<g id="edge22" class="edge">
<title>k&#45;&gt;K</title>
<path fill="none" stroke="black" d="M99,-347.8C99,-336.16 99,-320.55 99,-307.24"/>
<polygon fill="black" stroke="black" points="102.5,-307.18 99,-297.18 95.5,-307.18 102.5,-307.18"/>
<text text-anchor="middle" x="102.5" y="-318.8" font-family="Times,serif" font-size="14.00">9</text>
</g>
<!-- f -->
<g id="node24" class="node">
<title>f</title>
<ellipse fill="none" stroke="black" cx="99" cy="-192" rx="27" ry="18"/>
<text text-anchor="middle" x="99" y="-188.3" font-family="Times,serif" font-size="14.00">f</text>
</g>
<!-- K&#45;&gt;f -->
<g id="edge23" class="edge">
<title>K&#45;&gt;f</title>
<path fill="none" stroke="black" d="M99,-260.8C99,-249.16 99,-233.55 99,-220.24"/>
<polygon fill="black" stroke="black" points="102.5,-220.18 99,-210.18 95.5,-220.18 102.5,-220.18"/>
<text text-anchor="middle" x="102.5" y="-231.8" font-family="Times,serif" font-size="14.00">9</text>
</g>
<!-- F -->
<g id="node25" class="node">
<title>F</title>
<ellipse fill="none" stroke="black" cx="99" cy="-105" rx="27" ry="18"/>
<text text-anchor="middle" x="99" y="-101.3" font-family="Times,serif" font-size="14.00">F</text>
</g>
<!-- f&#45;&gt;F -->
<g id="edge24" class="edge">
<title>f&#45;&gt;F</title>
<path fill="none" stroke="black" d="M99,-173.8C99,-162.16 99,-146.55 99,-133.24"/>
<polygon fill="black" stroke="black" points="102.5,-133.18 99,-123.18 95.5,-133.18 102.5,-133.18"/>
<text text-anchor="middle" x="106" y="-144.8" font-family="Times,serif" font-size="14.00">15</text>
</g>
<!-- c -->
<g id="node26" class="node">
<title>c</title>
<ellipse fill="none" stroke="black" cx="99" cy="-18" rx="27" ry="18"/>
<text text-anchor="middle" x="99" y="-14.3" font-family="Times,serif" font-size="14.00">c</text>
</g>
<!-- F&#45;&gt;c -->
<g id="edge25" class="edge">
<title>F&#45;&gt;c</title>
<path fill="none" stroke="black" d="M99,-86.8C99,-75.16 99,-59.55 99,-46.24"/>
<polygon fill="black" stroke="black" points="102.5,-46.18 99,-36.18 95.5,-46.18 102.5,-46.18"/>
<text text-anchor="middle" x="102.5" y="-57.8" font-family="Times,serif" font-size="14.00">3</text>
</g>
<!-- Q -->
<g id="node30" class="node">
<title>Q</title>
<ellipse fill="none" stroke="black" cx="232" cy="-1584" rx="27" ry="18"/>
<text text-anchor="middle" x="232" y="-1580.3" font-family="Times,serif" font-size="14.00">Q</text>
</g>
<!-- l&#45;&gt;Q -->
<g id="edge29" class="edge">
<title>l&#45;&gt;Q</title>
<path fill="none" stroke="black" d="M233.6,-1652.8C233.32,-1641.16 232.95,-1625.55 232.64,-1612.24"/>
<polygon fill="black" stroke="black" points="236.14,-1612.09 232.4,-1602.18 229.14,-1612.26 236.14,-1612.09"/>
<text text-anchor="middle" x="244.5" y="-1623.8" font-family="Times,serif" font-size="14.00">109</text>
</g>
<!-- 47:79 -->
<g id="node31" class="node">
<title>47:79</title>
<ellipse fill="none" stroke="black" cx="228" cy="-1497" rx="30.59" ry="18"/>
<text text-anchor="middle" x="228" y="-1493.3" font-family="Times,serif" font-size="14.00">47:79</text>
</g>
<!-- Q&#45;&gt;47:79 -->
<g id="edge30" class="edge">
<title>Q&#45;&gt;47:79</title>
<path fill="none" stroke="black" d="M231.19,-1565.8C230.64,-1554.16 229.91,-1538.55 229.28,-1525.24"/>
<polygon fill="black" stroke="black" points="232.77,-1525 228.81,-1515.18 225.78,-1525.33 232.77,-1525"/>
<text text-anchor="middle" x="234.5" y="-1536.8" font-family="Times,serif" font-size="14.00">7</text>
</g>
<!-- Z -->
<g id="node32" class="node">
<title>Z</title>
<ellipse fill="none" stroke="black" cx="219" cy="-1410" rx="27" ry="18"/>
<text text-anchor="middle" x="219" y="-1406.3" font-family="Times,serif" font-size="14.00">Z</text>
</g>
<!-- 47:79&#45;&gt;Z -->
<g id="edge31" class="edge">
<title>47:79&#45;&gt;Z</title>
<path fill="none" stroke="black" d="M226.18,-1478.8C224.95,-1467.16 223.29,-1451.55 221.88,-1438.24"/>
<polygon fill="black" stroke="black" points="225.35,-1437.75 220.82,-1428.18 218.39,-1438.49 225.35,-1437.75"/>
<text text-anchor="middle" x="232" y="-1449.8" font-family="Times,serif" font-size="14.00">51</text>
</g>
<!-- d -->
<g id="node37" class="node">
<title>d</title>
<ellipse fill="none" stroke="black" cx="291" cy="-1410" rx="27" ry="18"/>
<text text-anchor="middle" x="291" y="-1406.3" font-family="Times,serif" font-size="14.00">d</text>
</g>
<!-- 47:79&#45;&gt;d -->
<g id="edge36" class="edge">
<title>47:79&#45;&gt;d</title>
<path fill="none" stroke="black" d="M239.85,-1480.01C249.38,-1467.15 262.92,-1448.89 273.67,-1434.38"/>
<polygon fill="black" stroke="black" points="276.48,-1436.46 279.63,-1426.34 270.86,-1432.29 276.48,-1436.46"/>
<text text-anchor="middle" x="267.5" y="-1449.8" font-family="Times,serif" font-size="14.00">4</text>
</g>
<!-- O -->
<g id="node33" class="node">
<title>O</title>
<ellipse fill="none" stroke="black" cx="219" cy="-1323" rx="27" ry="18"/>
<text text-anchor="middle" x="219" y="-1319.3" font-family="Times,serif" font-size="14.00">O</text>
</g>
<!-- Z&#45;&gt;O -->
<g id="edge32" class="edge">
<title>Z&#45;&gt;O</title>
<path fill="none" stroke="black" d="M219,-1391.8C219,-1380.16 219,-1364.55 219,-1351.24"/>
<polygon fill="black" stroke="black" points="222.5,-1351.18 219,-1341.18 215.5,-1351.18 222.5,-1351.18"/>
<text text-anchor="middle" x="226" y="-1362.8" font-family="Times,serif" font-size="14.00">16</text>
</g>
<!-- 79:75 -->
<g id="node34" class="node">
<title>79:75</title>
<ellipse fill="none" stroke="black" cx="219" cy="-1236" rx="30.59" ry="18"/>
<text text-anchor="middle" x="219" y="-1232.3" font-family="Times,serif" font-size="14.00">79:75</text>
</g>
<!-- O&#45;&gt;79:75 -->
<g id="edge33" class="edge">
<title>O&#45;&gt;79:75</title>
<path fill="none" stroke="black" d="M219,-1304.8C219,-1293.16 219,-1277.55 219,-1264.24"/>
<polygon fill="black" stroke="black" points="222.5,-1264.18 219,-1254.18 215.5,-1264.18 222.5,-1264.18"/>
<text text-anchor="middle" x="222.5" y="-1275.8" font-family="Times,serif" font-size="14.00">9</text>
</g>
<!-- u -->
<g id="node35" class="node">
<title>u</title>
<ellipse fill="none" stroke="black" cx="183" cy="-1149" rx="27" ry="18"/>
<text text-anchor="middle" x="183" y="-1145.3" font-family="Times,serif" font-size="14.00">u</text>
</g>
<!-- 79:75&#45;&gt;u -->
<g id="edge34" class="edge">
<title>79:75&#45;&gt;u</title>
<path fill="none" stroke="black" d="M211.89,-1218.21C206.78,-1206.14 199.79,-1189.64 193.97,-1175.89"/>
<polygon fill="black" stroke="black" points="197.1,-1174.31 189.98,-1166.47 190.65,-1177.04 197.1,-1174.31"/>
<text text-anchor="middle" x="211" y="-1188.8" font-family="Times,serif" font-size="14.00">20</text>
</g>
<!-- h -->
<g id="node36" class="node">
<title>h</title>
<ellipse fill="none" stroke="black" cx="255" cy="-1149" rx="27" ry="18"/>
<text text-anchor="middle" x="255" y="-1145.3" font-family="Times,serif" font-size="14.00">h</text>
</g>
<!-- 79:75&#45;&gt;h -->
<g id="edge35" class="edge">
<title>79:75&#45;&gt;h</title>
<path fill="none" stroke="black" d="M226.11,-1218.21C231.22,-1206.14 238.21,-1189.64 244.03,-1175.89"/>
<polygon fill="black" stroke="black" points="247.35,-1177.04 248.02,-1166.47 240.9,-1174.31 247.35,-1177.04"/>
<text text-anchor="middle" x="243.5" y="-1188.8" font-family="Times,serif" font-size="14.00">4</text>
</g>
<!-- 41:39 -->
<g id="node39" class="node">
<title>41:39</title>
<ellipse fill="none" stroke="black" cx="326" cy="-1671" rx="30.59" ry="18"/>
<text text-anchor="middle" x="326" y="-1667.3" font-family="Times,serif" font-size="14.00">41:39</text>
</g>
<!-- 40:39&#45;&gt;41:39 -->
<g id="edge38" class="edge">
<title>40:39&#45;&gt;41:39</title>
<path fill="none" stroke="black" d="M326,-1739.8C326,-1728.16 326,-1712.55 326,-1699.24"/>
<polygon fill="black" stroke="black" points="329.5,-1699.18 326,-1689.18 322.5,-1699.18 329.5,-1699.18"/>
</g>
<!-- Y -->
<g id="node44" class="node">
<title>Y</title>
<ellipse fill="none" stroke="black" cx="408" cy="-1671" rx="27" ry="18"/>
<text text-anchor="middle" x="408" y="-1667.3" font-family="Times,serif" font-size="14.00">Y</text>
</g>
<!-- 40:39&#45;&gt;Y -->
<g id="edge43" class="edge">
<title>40:39&#45;&gt;Y</title>
<path fill="none" stroke="black" d="M340.66,-1741.8C353.53,-1728.47 372.4,-1708.91 386.89,-1693.88"/>
<polygon fill="black" stroke="black" points="389.59,-1696.12 394.01,-1686.5 384.55,-1691.26 389.59,-1696.12"/>
<text text-anchor="middle" x="379" y="-1710.8" font-family="Times,serif" font-size="14.00">46</text>
</g>
<!-- X -->
<g id="node40" class="node">
<title>X</title>
<ellipse fill="none" stroke="black" cx="304" cy="-1584" rx="27" ry="18"/>
<text text-anchor="middle" x="304" y="-1580.3" font-family="Times,serif" font-size="14.00">X</text>
</g>
<!-- 41:39&#45;&gt;X -->
<g id="edge39" class="edge">
<title>41:39&#45;&gt;X</title>
<path fill="none" stroke="black" d="M321.55,-1652.8C318.49,-1640.97 314.36,-1625.03 310.88,-1611.58"/>
<polygon fill="black" stroke="black" points="314.26,-1610.69 308.37,-1601.89 307.49,-1612.44 314.26,-1610.69"/>
<text text-anchor="middle" x="324" y="-1623.8" font-family="Times,serif" font-size="14.00">23</text>
</g>
<!-- b -->
<g id="node42" class="node">
<title>b</title>
<ellipse fill="none" stroke="black" cx="376" cy="-1584" rx="27" ry="18"/>
<text text-anchor="middle" x="376" y="-1580.3" font-family="Times,serif" font-size="14.00">b</text>
</g>
<!-- 41:39&#45;&gt;b -->
<g id="edge41" class="edge">
<title>41:39&#45;&gt;b</title>
<path fill="none" stroke="black" d="M335.64,-1653.61C342.95,-1641.19 353.12,-1623.9 361.42,-1609.78"/>
<polygon fill="black" stroke="black" points="364.51,-1611.44 366.56,-1601.05 358.47,-1607.9 364.51,-1611.44"/>
<text text-anchor="middle" x="361" y="-1623.8" font-family="Times,serif" font-size="14.00">54</text>
</g>
<!-- y -->
<g id="node41" class="node">
<title>y</title>
<ellipse fill="none" stroke="black" cx="304" cy="-1497" rx="27" ry="18"/>
<text text-anchor="middle" x="304" y="-1493.3" font-family="Times,serif" font-size="14.00">y</text>
</g>
<!-- X&#45;&gt;y -->
<g id="edge40" class="edge">
<title>X&#45;&gt;y</title>
<path fill="none" stroke="black" d="M304,-1565.8C304,-1554.16 304,-1538.55 304,-1525.24"/>
<polygon fill="black" stroke="black" points="307.5,-1525.18 304,-1515.18 300.5,-1525.18 307.5,-1525.18"/>
<text text-anchor="middle" x="311" y="-1536.8" font-family="Times,serif" font-size="14.00">11</text>
</g>
<!-- t -->
<g id="node43" class="node">
<title>t</title>
<ellipse fill="none" stroke="black" cx="376" cy="-1497" rx="27" ry="18"/>
<text text-anchor="middle" x="376" y="-1493.3" font-family="Times,serif" font-size="14.00">t</text>
</g>
<!-- b&#45;&gt;t -->
<g id="edge42" class="edge">
<title>b&#45;&gt;t</title>
<path fill="none" stroke="black" d="M376,-1565.8C376,-1554.16 376,-1538.55 376,-1525.24"/>
<polygon fill="black" stroke="black" points="379.5,-1525.18 376,-1515.18 372.5,-1525.18 379.5,-1525.18"/>
<text text-anchor="middle" x="383" y="-1536.8" font-family="Times,serif" font-size="14.00">52</text>
</g>
<!-- G -->
<g id="node45" class="node">
<title>G</title>
<ellipse fill="none" stroke="black" cx="448" cy="-1584" rx="27" ry="18"/>
<text text-anchor="middle" x="448" y="-1580.3" font-family="Times,serif" font-size="14.00">G</text>
</g>
<!-- Y&#45;&gt;G -->
<g id="edge44" class="edge">
<title>Y&#45;&gt;G</title>
<path fill="none" stroke="black" d="M415.71,-1653.61C421.47,-1641.38 429.44,-1624.44 436.02,-1610.46"/>
<polygon fill="black" stroke="black" points="439.22,-1611.88 440.31,-1601.34 432.89,-1608.9 439.22,-1611.88"/>
<text text-anchor="middle" x="438" y="-1623.8" font-family="Times,serif" font-size="14.00">32</text>
</g>
<!-- 23:1 -->
<g id="node46" class="node">
<title>23:1</title>
<ellipse fill="none" stroke="black" cx="448" cy="-1497" rx="27" ry="18"/>
<text text-anchor="middle" x="448" y="-1493.3" font-family="Times,serif" font-size="14.00">23:1</text>
</g>
<!-- G&#45;&gt;23:1 -->
<g id="edge45" class="edge">
<title>G&#45;&gt;23:1</title>
<path fill="none" stroke="black" d="M448,-1565.8C448,-1554.16 448,-1538.55 448,-1525.24"/>
<polygon fill="black" stroke="black" points="451.5,-1525.18 448,-1515.18 444.5,-1525.18 451.5,-1525.18"/>
</g>
<!-- J -->
<g id="node47" class="node">
<title>J</title>
<ellipse fill="none" stroke="black" cx="420" cy="-1410" rx="27" ry="18"/>
<text text-anchor="middle" x="420" y="-1406.3" font-family="Times,serif" font-size="14.00">J</text>
</g>
<!-- 23:1&#45;&gt;J -->
<g id="edge46" class="edge">
<title>23:1&#45;&gt;J</title>
<path fill="none" stroke="black" d="M442.47,-1479.21C438.56,-1467.33 433.23,-1451.17 428.75,-1437.56"/>
<polygon fill="black" stroke="black" points="431.97,-1436.16 425.52,-1427.76 425.32,-1438.35 431.97,-1436.16"/>
<text text-anchor="middle" x="443" y="-1449.8" font-family="Times,serif" font-size="14.00">17</text>
</g>
<!-- v -->
<g id="node49" class="node">
<title>v</title>
<ellipse fill="none" stroke="black" cx="492" cy="-1410" rx="27" ry="18"/>
<text text-anchor="middle" x="492" y="-1406.3" font-family="Times,serif" font-size="14.00">v</text>
</g>
<!-- 23:1&#45;&gt;v -->
<g id="edge48" class="edge">
<title>23:1&#45;&gt;v</title>
<path fill="none" stroke="black" d="M456.48,-1479.61C462.81,-1467.38 471.58,-1450.44 478.82,-1436.46"/>
<polygon fill="black" stroke="black" points="482.05,-1437.83 483.54,-1427.34 475.84,-1434.61 482.05,-1437.83"/>
<text text-anchor="middle" x="480" y="-1449.8" font-family="Times,serif" font-size="14.00">52</text>
</g>
<!-- i -->
<g id="node48" class="node">
<title>i</title>
<ellipse fill="none" stroke="black" cx="420" cy="-1323" rx="27" ry="18"/>
<text text-anchor="middle" x="420" y="-1319.3" font-family="Times,serif" font-size="14.00">i</text>
</g>
<!-- J&#45;&gt;i -->
<g id="edge47" class="edge">
<title>J&#45;&gt;i</title>
<path fill="none" stroke="black" d="M420,-1391.8C420,-1380.16 420,-1364.55 420,-1351.24"/>
<polygon fill="black" stroke="black" points="423.5,-1351.18 420,-1341.18 416.5,-1351.18 423.5,-1351.18"/>
<text text-anchor="middle" x="427" y="-1362.8" font-family="Times,serif" font-size="14.00">75</text>
</g>
<!-- L -->
<g id="node50" class="node">
<title>L</title>
<ellipse fill="none" stroke="black" cx="492" cy="-1323" rx="27" ry="18"/>
<text text-anchor="middle" x="492" y="-1319.3" font-family="Times,serif" font-size="14.00">L</text>
</g>
<!-- v&#45;&gt;L -->
<g id="edge49" class="edge">
<title>v&#45;&gt;L</title>
<path fill="none" stroke="black" d="M492,-1391.8C492,-1380.16 492,-1364.55 492,-1351.24"/>
<polygon fill="black" stroke="black" points="495.5,-1351.18 492,-1341.18 488.5,-1351.18 495.5,-1351.18"/>
<text text-anchor="middle" x="499" y="-1362.8" font-family="Times,serif" font-size="14.00">23</text>
</g>
<!-- r -->
<g id="node51" class="node">
<title>r</title>
<ellipse fill="none" stroke="black" cx="492" cy="-1236" rx="27" ry="18"/>
<text text-anchor="middle" x="492" y="-1232.3" font-family="Times,serif" font-size="14.00">r</text>
</g>
<!-- L&#45;&gt;r -->
<g id="edge50" class="edge">
<title>L&#45;&gt;r</title>
<path fill="none" stroke="black" d="M492,-1304.8C492,-1293.16 492,-1277.55 492,-1264.24"/>
<polygon fill="black" stroke="black" points="495.5,-1264.18 492,-1254.18 488.5,-1264.18 495.5,-1264.18"/>
<text text-anchor="middle" x="499" y="-1275.8" font-family="Times,serif" font-size="14.00">35</text>
</g>
<!-- 1:5 -->
<g id="node52" class="node">
<title>1:5</title>
<ellipse fill="none" stroke="black" cx="492" cy="-1149" rx="27" ry="18"/>
<text text-anchor="middle" x="492" y="-1145.3" font-family="Times,serif" font-size="14.00">1:5</text>
</g>
<!-- r&#45;&gt;1:5 -->
<g id="edge51" class="edge">
<title>r&#45;&gt;1:5</title>
<path fill="none" stroke="black" d="M492,-1217.8C492,-1206.16 492,-1190.55 492,-1177.24"/>
<polygon fill="black" stroke="black" points="495.5,-1177.18 492,-1167.18 488.5,-1177.18 495.5,-1177.18"/>
<text text-anchor="middle" x="499" y="-1188.8" font-family="Times,serif" font-size="14.00">20</text>
</g>
<!-- E -->
<g id="node53" class="node">
<title>E</title>
<ellipse fill="none" stroke="black" cx="445" cy="-1062" rx="27" ry="18"/>
<text text-anchor="middle" x="445" y="-1058.3" font-family="Times,serif" font-size="14.00">E</text>
</g>
<!-- 1:5&#45;&gt;E -->
<g id="edge52" class="edge">
<title>1:5&#45;&gt;E</title>
<path fill="none" stroke="black" d="M482.94,-1131.61C476.13,-1119.3 466.69,-1102.23 458.93,-1088.19"/>
<polygon fill="black" stroke="black" points="461.78,-1086.11 453.87,-1079.05 455.65,-1089.5 461.78,-1086.11"/>
<text text-anchor="middle" x="475.5" y="-1101.8" font-family="Times,serif" font-size="14.00">5</text>
</g>
<!-- p -->
<g id="node55" class="node">
<title>p</title>
<ellipse fill="none" stroke="black" cx="517" cy="-1062" rx="27" ry="18"/>
<text text-anchor="middle" x="517" y="-1058.3" font-family="Times,serif" font-size="14.00">p</text>
</g>
<!-- 1:5&#45;&gt;p -->
<g id="edge54" class="edge">
<title>1:5&#45;&gt;p</title>
<path fill="none" stroke="black" d="M496.94,-1131.21C500.43,-1119.33 505.19,-1103.17 509.19,-1089.56"/>
<polygon fill="black" stroke="black" points="512.61,-1090.34 512.07,-1079.76 505.89,-1088.36 512.61,-1090.34"/>
<text text-anchor="middle" x="513" y="-1101.8" font-family="Times,serif" font-size="14.00">16</text>
</g>
<!-- q -->
<g id="node54" class="node">
<title>q</title>
<ellipse fill="none" stroke="black" cx="445" cy="-975" rx="27" ry="18"/>
<text text-anchor="middle" x="445" y="-971.3" font-family="Times,serif" font-size="14.00">q</text>
</g>
<!-- E&#45;&gt;q -->
<g id="edge53" class="edge">
<title>E&#45;&gt;q</title>
<path fill="none" stroke="black" d="M445,-1043.8C445,-1032.16 445,-1016.55 445,-1003.24"/>
<polygon fill="black" stroke="black" points="448.5,-1003.18 445,-993.18 441.5,-1003.18 448.5,-1003.18"/>
<text text-anchor="middle" x="452" y="-1014.8" font-family="Times,serif" font-size="14.00">25</text>
</g>
</g>
</svg>
